PathFileType	4	(X/Y/Z)	C:\Users\WrightLab\Desktop\Jo\P4V122.trc
DataRate	CameraRate	NumFrames	NumMarkers	Units	OrigDataRate	OrigDataStartFrame	OrigNumFrames
100.00	100.00	       24	19	mm	100.00	80	       633
Frame#	Time	Headset_Front			Headset_Back			Headset_Left			Headset_Right			Left_Shoulder			Right_Shoulder			Sternum			C7			Left Elbow			Right Elbow			Left Wrist			Right Wrist			Left ASIS			Right ASIS			S2			Left Knee			Right Knee			Left Ankle			Right Ankle			
		X1	Y1	Z1	X2	Y2	Z2	X3	Y3	Z3	X4	Y4	Z4	X5	Y5	Z5	X6	Y6	Z6	X7	Y7	Z7	X8	Y8	Z8	X9	Y9	Z9	X10	Y10	Z10	X11	Y11	Z11	X12	Y12	Z12	X13	Y13	Z13	X14	Y14	Z14	X15	Y15	Z15	X16	Y16	Z16	X17	Y17	Z17	X18	Y18	Z18	X19	Y19	Z19	

80	0.790																															34.61526	894.56036	-1303.41907													26.82094	503.02414	-1576.38232	-353.33932	552.08990	-1440.13977							
81	0.800																															26.74767	896.02673	-1294.69897													25.60910	502.93536	-1573.92456	-357.17941	549.93164	-1441.81506							
82	0.810																															19.25486	897.26007	-1286.39624													24.05763	502.81589	-1571.46753	-359.94476	551.56873	-1440.75378							
83	0.820																															10.92867	899.94238	-1278.48743													22.44682	502.72098	-1570.63953	-362.83557	550.79449	-1435.82678							
84	0.830																															3.02617	901.75293	-1271.01245													21.58552	502.12134	-1570.65991	-366.46500	551.91394	-1431.23718							
85	0.840																															-5.44006	902.33820	-1263.03638													20.18244	501.15997	-1569.68518	-370.91138	551.24646	-1428.44678							
86	0.850																															-13.80119	904.60052	-1254.35266													18.88326	499.92645	-1569.14172	-373.95541	551.84210	-1425.11267							
87	0.860																															-22.18087	905.97504	-1248.01416													16.93049	499.58261	-1565.11987	-377.81729	553.40497	-1418.51123							
88	0.870																															-29.24990	907.94037	-1240.46228													15.79383	498.63232	-1563.49512	-382.26764	550.73157	-1422.69482							
89	0.880																															-38.44402	909.29144	-1232.70386													14.99087	498.07489	-1562.98877	-386.24731	552.46619	-1414.80029							
90	0.890																															-46.08377	910.33832	-1225.60083													12.95502	499.07938	-1557.41345	-391.07385	553.36401	-1406.45972							
91	0.900																															-54.17992	912.02429	-1217.27539													10.90613	499.40802	-1552.30981	-396.54166	553.18152	-1402.85083							
92	0.910																															-63.28489	913.00006	-1209.47913													9.76936	497.68265	-1551.14905	-400.01068	554.46790	-1393.00488							
93	0.920																															-70.02562	913.81085	-1202.30298													7.04763	498.58914	-1546.50989	-404.88593	554.86615	-1386.93848							
94	0.930																															-79.17217	916.10303	-1194.58313													4.62900	496.67975	-1546.59863	-409.50439	555.09247	-1381.56482							
95	0.940																															-87.02863	918.08722	-1188.18994													1.56400	496.02121	-1544.88733	-414.51535	555.56964	-1375.35400							
96	0.950																															-95.76730	918.11841	-1179.94336													-1.82630	496.52286	-1538.36914	-418.49924	555.18579	-1369.65686							
97	0.960																															-103.08872	918.89642	-1172.86487													-2.67688	495.83148	-1538.29773	-423.32806	554.59558	-1363.79797							
98	0.970																															-111.73927	920.76666	-1165.83752													-5.46247	496.16998	-1531.96472	-428.48605	555.04907	-1357.47607							
99	0.980																															-118.53658	921.64307	-1157.48035							-348.61090	993.53009	-1456.54138				-7.67415	494.20050	-1528.69958	-432.73572	553.93048	-1351.84778							
100	0.990																															-126.96826	922.99341	-1150.55481							-352.12674	993.26379	-1448.15662				-11.09916	493.98859	-1523.02771	-438.16809	552.82465	-1345.77966							
101	1.000																															-134.84605	923.11572	-1142.76208							-356.12503	992.00537	-1437.17041				-13.44864	491.97012	-1526.50537	-442.84283	552.00293	-1339.87805							
102	1.010																															-142.03728	923.75122	-1134.55823							-360.83902	989.33685	-1435.71021				-17.31803	491.90564	-1521.52197	-448.15256	550.88336	-1332.91248							
103	1.020																															-149.05562	924.51434	-1128.81860							-365.07013	988.00232	-1431.60205				-21.03844	492.28247	-1513.11023	-452.15326	549.06702	-1326.88696							
